<svg width="55" height="69" viewBox="0 0 55 69" fill="none" xmlns="http://www.w3.org/2000/svg">
<path opacity="0.5" d="M51.3291 1.57391C50.9461 0.839341 50.0401 0.554353 49.3055 0.937371C48.571 1.32039 48.286 2.22637 48.669 2.96094L51.3291 1.57391ZM34.6647 33.1698L34.963 34.6399L34.6647 33.1698ZM1.06629 55.4172C0.419852 55.9353 0.315795 56.8793 0.833876 57.5258L9.27648 68.0601C9.79456 68.7065 10.7386 68.8106 11.385 68.2925C12.0315 67.7744 12.1355 66.8304 11.6174 66.184L4.11291 56.8201L13.4768 49.3156C14.1232 48.7975 14.2273 47.8535 13.7092 47.207C13.1911 46.5606 12.2471 46.4565 11.6006 46.9746L1.06629 55.4172ZM48.669 2.96094C50.755 6.96159 52.4613 13.1449 51.0472 18.7635C50.349 21.5376 48.8879 24.1945 46.2925 26.4375C43.6862 28.6899 39.8658 30.5842 34.3665 31.6998L34.963 34.6399C40.8394 33.4478 45.1698 31.3728 48.2541 28.7073C51.3494 26.0324 53.119 22.8231 53.9565 19.4957C55.6137 12.9113 53.6114 5.95103 51.3291 1.57391L48.669 2.96094ZM34.3665 31.6998C27.5154 33.0896 22.8472 32.0779 19.9082 30.1719C16.9775 28.2712 15.5811 25.3677 15.4439 22.5399C15.305 19.6787 16.4527 17.0044 18.4851 15.5046C20.4525 14.0528 23.545 13.4913 27.7832 15.4306L29.0315 12.7026C24.0355 10.4166 19.7381 10.8515 16.7038 13.0907C13.7344 15.2819 12.2683 18.9932 12.4474 22.6853C12.6282 26.4109 14.4815 30.2282 18.2759 32.6889C22.0621 35.1444 27.5945 36.1346 34.963 34.6399L34.3665 31.6998ZM27.7832 15.4306C31.8932 17.3112 34.2157 20.7852 34.9541 25.0141C35.7 29.2858 34.8169 34.3305 32.4143 39.1027C27.6213 48.623 16.9595 56.727 2.1687 55.0967L1.84001 58.0787C18.0429 59.8646 29.8168 50.9335 35.0939 40.4518C37.7264 35.223 38.7871 29.525 37.9094 24.4981C37.0241 19.4281 34.1557 15.0473 29.0315 12.7026L27.7832 15.4306Z" fill="#D26D60"/>
</svg>
